# xmcd CD database file
#
# Track frame offsets:
#	150
#	21076
#	40017
#	55407
#	76783
#	101459
#	123285
#	143835
#	158348
#	170011
#	190974
#	212500
#	231439
#	244490
#
# Disc length: 3556 seconds
#
# Revision: 0
# Processed by: cddbd v1.5.1PL0 Copyright (c) Steve Scherf et al.
# Submitted via: CDex 1.51
#
DISCID=b40de20e
DTITLE=Secret Garden - earthsongs
DYEAR=2005
DGENRE=New Age
TTITLE0=Sometimes When It Rains
TTITLE1=Fields of Fortune
TTITLE2=The Reel
TTITLE3=Always There
TTITLE4=When Darkness Falls
TTITLE5=Sleepsong
TTITLE6=Lotus
TTITLE7=Searching for the Past
TTITLE8=Daughters of Erin
TTITLE9=Half A World Away
TTITLE10=Grace
TTITLE11=Raise Your Voices
TTITLE12=Adagio
TTITLE13=You Raise Me Up (by Johnny Logan)
EXTD=YEAR: 2005
EXTT0=
EXTT1=
EXTT2=
EXTT3=
EXTT4=
EXTT5=
EXTT6=
EXTT7=
EXTT8=
EXTT9=
EXTT10=
EXTT11=
EXTT12=
EXTT13=
PLAYORDER=
